<svg xmlns="http://www.w3.org/2000/svg" width="1650" height="800" viewBox="0 0 1650 800" role="img" aria-label="Arquitectura de entrega continua con stencils oficiales Azure y GitHub">
  <defs>
    <style>
      .t { font-family: 'Segoe UI', Arial, sans-serif; fill: #0f172a; }
      .title { font-size: 29px; font-weight: 700; }
      .subtitle { font-size: 13px; fill: #475569; }
      .h { font-size: 16px; font-weight: 700; }
      .s { font-size: 13px; fill: #334155; }
      .tag { font-size: 12px; font-weight: 700; fill: #475569; }
      .flow { font-size: 12px; font-weight: 700; fill: #1e293b; }
      .zone { rx: 14; ry: 14; stroke-width: 2; }
      .box { rx: 12; ry: 12; stroke-width: 2; }
      .line { stroke-width: 2.2; fill: none; marker-end: url(#arrow); }
    </style>
    <marker id="arrow" markerWidth="10" markerHeight="10" refX="9" refY="3" orient="auto">
      <polygon points="0 0, 10 3, 0 6" fill="#334155"/>
    </marker>
  </defs>

  <text x="825" y="50" class="t title" text-anchor="middle">L.A.M.A. Región Norte - Arquitectura de Entrega Continua</text>
  <text x="825" y="73" class="t subtitle" text-anchor="middle">Topología CI/CD y runtime con stencils oficiales de Azure y GitHub</text>

  <rect x="50" y="130" width="500" height="610" class="zone" fill="#f8fafc" stroke="#334155"/>
  <text x="70" y="158" class="t tag">DOMINIO DEVOPS</text>
  <rect x="90" y="220" width="190" height="120" class="box" fill="#f3f4f6" stroke="#111827"/>
  <image href="icons-official/github-mark.svg" x="110" y="248" width="30" height="30"/>
  <text x="185" y="272" class="t h" text-anchor="middle">GitHub</text>
  <text x="185" y="296" class="t s" text-anchor="middle">Source of truth</text>

  <rect x="320" y="220" width="190" height="120" class="box" fill="#fef3c7" stroke="#d97706"/>
  <text x="415" y="270" class="t h" text-anchor="middle">Build Artifact</text>
  <text x="415" y="294" class="t s" text-anchor="middle">zip package</text>

  <rect x="90" y="390" width="420" height="130" class="box" fill="#e2e8f0" stroke="#475569"/>
  <text x="300" y="430" class="t h" text-anchor="middle">Control de Release</text>
  <text x="300" y="452" class="t s" text-anchor="middle">Versionado · rollback · trazabilidad</text>
  <text x="300" y="474" class="t s" text-anchor="middle">gates de despliegue y verificación</text>

  <rect x="580" y="130" width="1020" height="610" class="zone" fill="#ecfeff" stroke="#0891b2"/>
  <text x="600" y="158" class="t tag">PLATAFORMA AZURE</text>

  <rect x="630" y="220" width="290" height="140" class="box" fill="#dcfce7" stroke="#16a34a"/>
  <image href="icons-official/azure-app-service.svg" x="650" y="244" width="32" height="32"/>
  <text x="775" y="270" class="t h" text-anchor="middle">Azure OneDeploy</text>
  <text x="775" y="294" class="t s" text-anchor="middle">Entrega continua a runtime</text>

  <rect x="960" y="220" width="290" height="140" class="box" fill="#e0f2fe" stroke="#0284c7"/>
  <image href="icons-official/azure-app-service.svg" x="980" y="244" width="32" height="32"/>
  <text x="1105" y="270" class="t h" text-anchor="middle">App Service (Prod)</text>
  <text x="1105" y="294" class="t s" text-anchor="middle">Runtime Node.js / Express</text>

  <rect x="1290" y="220" width="270" height="140" class="box" fill="#fee2e2" stroke="#b91c1c"/>
  <image href="icons-official/azure-sql-database.svg" x="1310" y="244" width="32" height="32"/>
  <text x="1425" y="270" class="t h" text-anchor="middle">Azure SQL Database</text>
  <text x="1425" y="294" class="t s" text-anchor="middle">Datos transaccionales</text>

  <rect x="630" y="410" width="930" height="130" class="box" fill="#ede9fe" stroke="#6d28d9"/>
  <text x="1095" y="450" class="t h" text-anchor="middle">Validación Operativa Post-Deploy</text>
  <text x="1095" y="472" class="t s" text-anchor="middle">health/startup checks · smoke tests · endpoints críticos</text>

  <rect x="630" y="580" width="930" height="130" class="box" fill="#ecfccb" stroke="#4d7c0f"/>
  <text x="1095" y="620" class="t h" text-anchor="middle">Observabilidad y Respuesta</text>
  <text x="1095" y="642" class="t s" text-anchor="middle">detección temprana de fallos · runbook de recuperación · evidencia de cierre</text>

  <line x1="280" y1="280" x2="320" y2="280" class="line" stroke="#111827"/>
  <line x1="510" y1="280" x2="630" y2="280" class="line" stroke="#d97706"/>
  <line x1="920" y1="290" x2="960" y2="290" class="line" stroke="#16a34a"/>
  <line x1="1250" y1="290" x2="1290" y2="290" class="line" stroke="#0284c7"/>
  <line x1="1105" y1="360" x2="1105" y2="410" class="line" stroke="#6d28d9"/>
  <line x1="1105" y1="540" x2="1105" y2="580" class="line" stroke="#4d7c0f"/>
  <line x1="300" y1="390" x2="750" y2="360" class="line" stroke="#475569"/>

  <text x="294" y="272" class="t flow">F1</text>
  <text x="550" y="272" class="t flow">F2</text>
  <text x="932" y="282" class="t flow">F3</text>
  <text x="1262" y="282" class="t flow">F4</text>
  <text x="1118" y="394" class="t flow">F5</text>
  <text x="1118" y="572" class="t flow">F6</text>
  <text x="512" y="386" class="t flow">F7</text>

  <rect x="70" y="760" width="760" height="30" class="box" fill="#f8fafc" stroke="#94a3b8"/>
  <text x="90" y="780" class="t s">Leyenda: F1 código fuente → F2 build → F3 deploy → F4 runtime → F5 validación → F6 observabilidad → F7 control de release</text>
</svg>
