<svg xmlns="http://www.w3.org/2000/svg" width="1650" height="800" viewBox="0 0 1650 800" role="img" aria-label="Flujo de despliegue con iconos oficiales Microsoft Azure y GitHub">
  <defs>
    <style>
      .t { font-family: 'Segoe UI', Arial, sans-serif; fill: #0f172a; }
      .title { font-size: 29px; font-weight: 700; }
      .h { font-size: 16px; font-weight: 700; }
      .s { font-size: 13px; }
      .box { rx: 12; ry: 12; stroke-width: 2; }
      .line { stroke-width: 2.2; fill: none; marker-end: url(#arrow); }
    </style>
    <marker id="arrow" markerWidth="10" markerHeight="10" refX="9" refY="3" orient="auto">
      <polygon points="0 0, 10 3, 0 6" fill="#334155"/>
    </marker>
  </defs>

  <text x="825" y="52" class="t title" text-anchor="middle">L.A.M.A. Región Norte - Flujo de Despliegue (Iconografía Oficial)</text>

  <rect x="60" y="240" width="190" height="86" class="box" fill="#dbeafe" stroke="#2563eb"/>
  <text x="155" y="279" class="t h" text-anchor="middle">Desarrollador</text>

  <rect x="290" y="240" width="180" height="86" class="box" fill="#e5e7eb" stroke="#374151"/>
  <text x="380" y="279" class="t h" text-anchor="middle">Git</text>

  <rect x="510" y="240" width="210" height="86" class="box" fill="#f3f4f6" stroke="#111827"/>
  <image href="icons-official/github-mark.png" x="526" y="255" width="24" height="24"/>
  <text x="615" y="279" class="t h" text-anchor="middle">GitHub Repo</text>
  <text x="615" y="299" class="t s" text-anchor="middle">main</text>

  <rect x="760" y="240" width="230" height="86" class="box" fill="#fef3c7" stroke="#d97706"/>
  <text x="875" y="279" class="t h" text-anchor="middle">Artefacto ZIP</text>
  <text x="875" y="299" class="t s" text-anchor="middle">git archive / .publishsrc</text>

  <rect x="1030" y="240" width="230" height="86" class="box" fill="#dcfce7" stroke="#16a34a"/>
  <image href="icons-official/azure-app-service.svg" x="1048" y="254" width="24" height="24"/>
  <text x="1145" y="279" class="t h" text-anchor="middle">Azure OneDeploy</text>
  <text x="1145" y="299" class="t s" text-anchor="middle">az webapp deploy</text>

  <rect x="1300" y="240" width="250" height="86" class="box" fill="#e0f2fe" stroke="#0284c7"/>
  <image href="icons-official/azure-app-service.svg" x="1318" y="254" width="24" height="24"/>
  <text x="1425" y="279" class="t h" text-anchor="middle">Azure App Service</text>

  <rect x="1300" y="390" width="250" height="86" class="box" fill="#fce7f3" stroke="#be185d"/>
  <text x="1425" y="429" class="t h" text-anchor="middle">Runtime Startup</text>

  <rect x="1030" y="390" width="230" height="86" class="box" fill="#ecfccb" stroke="#4d7c0f"/>
  <text x="1145" y="429" class="t h" text-anchor="middle">Health Validation</text>

  <rect x="1300" y="540" width="250" height="86" class="box" fill="#fee2e2" stroke="#b91c1c"/>
  <image href="icons-official/azure-sql-database.svg" x="1318" y="554" width="24" height="24"/>
  <text x="1425" y="579" class="t h" text-anchor="middle">Azure SQL Database</text>

  <rect x="750" y="390" width="230" height="86" class="box" fill="#ede9fe" stroke="#6d28d9"/>
  <text x="865" y="429" class="t h" text-anchor="middle">Observabilidad</text>

  <rect x="500" y="390" width="210" height="86" class="box" fill="#ffedd5" stroke="#ea580c"/>
  <text x="605" y="429" class="t h" text-anchor="middle">Recuperación</text>

  <line x1="250" y1="283" x2="290" y2="283" class="line" stroke="#2563eb"/>
  <line x1="470" y1="283" x2="510" y2="283" class="line" stroke="#374151"/>
  <line x1="720" y1="283" x2="760" y2="283" class="line" stroke="#d97706"/>
  <line x1="990" y1="283" x2="1030" y2="283" class="line" stroke="#16a34a"/>
  <line x1="1260" y1="283" x2="1300" y2="283" class="line" stroke="#0284c7"/>
  <line x1="1425" y1="326" x2="1425" y2="390" class="line" stroke="#be185d"/>
  <line x1="1300" y1="433" x2="1260" y2="433" class="line" stroke="#4d7c0f"/>
  <line x1="1425" y1="476" x2="1425" y2="540" class="line" stroke="#b91c1c"/>
  <line x1="1030" y1="433" x2="980" y2="433" class="line" stroke="#6d28d9"/>
  <line x1="750" y1="433" x2="710" y2="433" class="line" stroke="#ea580c"/>
  <line x1="710" y1="390" x2="1030" y2="326" class="line" stroke="#ea580c"/>
</svg>
