<svg xmlns="http://www.w3.org/2000/svg" width="1780" height="920" viewBox="0 0 1780 920" role="img" aria-label="Arquitectura operativa de respuesta a incidentes con stencils oficiales Azure y GitHub">
  <defs>
    <style>
      .t { font-family: 'Segoe UI', Arial, sans-serif; fill: #0f172a; }
      .title { font-size: 30px; font-weight: 700; }
      .subtitle { font-size: 13px; fill: #475569; }
      .h { font-size: 16px; font-weight: 700; }
      .s { font-size: 13px; fill: #334155; }
      .tag { font-size: 12px; font-weight: 700; fill: #475569; }
      .zone { rx: 14; ry: 14; stroke-width: 2; }
      .box { rx: 12; ry: 12; stroke-width: 2; }
      .line { stroke-width: 2.3; fill: none; marker-end: url(#arrow); }
    </style>
    <marker id="arrow" markerWidth="10" markerHeight="10" refX="9" refY="3" orient="auto">
      <polygon points="0 0, 10 3, 0 6" fill="#334155"/>
    </marker>
  </defs>

  <text x="890" y="50" class="t title" text-anchor="middle">L.A.M.A. Región Norte - Arquitectura Operativa de Incidentes</text>
  <text x="890" y="73" class="t subtitle" text-anchor="middle">Modelo de observación, contención y recuperación para 503 / startup timeout</text>

  <rect x="40" y="140" width="380" height="700" class="zone" fill="#eef2ff" stroke="#4338ca"/>
  <text x="60" y="168" class="t tag">DETECCIÓN Y TRIAGE</text>
  <rect x="80" y="240" width="300" height="130" class="box" fill="#fee2e2" stroke="#b91c1c"/>
  <text x="230" y="286" class="t h" text-anchor="middle">Señal de incidente</text>
  <text x="230" y="309" class="t s" text-anchor="middle">HTTP 503 · startup timeout · degraded health</text>

  <rect x="80" y="430" width="300" height="170" class="box" fill="#e0f2fe" stroke="#0369a1"/>
  <image href="icons-official/azure-app-service.svg" x="100" y="455" width="30" height="30"/>
  <text x="230" y="480" class="t h" text-anchor="middle">Diagnóstico inicial</text>
  <text x="230" y="503" class="t s" text-anchor="middle">deployment state · logs de aplicación</text>
  <text x="230" y="525" class="t s" text-anchor="middle">validación de startup command</text>

  <rect x="450" y="140" width="860" height="700" class="zone" fill="#ecfeff" stroke="#0891b2"/>
  <text x="470" y="168" class="t tag">CAPA DE EJECUCIÓN EN AZURE</text>

  <rect x="500" y="230" width="360" height="170" class="box" fill="#dcfce7" stroke="#16a34a"/>
  <image href="icons-official/azure-app-service.svg" x="520" y="255" width="34" height="34"/>
  <text x="680" y="282" class="t h" text-anchor="middle">Contención (App Service)</text>
  <text x="680" y="305" class="t s" text-anchor="middle">restart / stop-start / redeploy controlado</text>
  <text x="680" y="327" class="t s" text-anchor="middle">cierre de ventana de indisponibilidad</text>

  <rect x="900" y="230" width="360" height="170" class="box" fill="#fee2e2" stroke="#b91c1c"/>
  <image href="icons-official/azure-sql-database.svg" x="920" y="255" width="34" height="34"/>
  <text x="1080" y="282" class="t h" text-anchor="middle">Dependencias de datos</text>
  <text x="1080" y="305" class="t s" text-anchor="middle">conectividad SQL · credenciales · latencia</text>
  <text x="1080" y="327" class="t s" text-anchor="middle">consistencia de acceso transaccional</text>

  <rect x="500" y="460" width="760" height="150" class="box" fill="#ede9fe" stroke="#6d28d9"/>
  <text x="880" y="502" class="t h" text-anchor="middle">Validación Técnica Integral</text>
  <text x="880" y="525" class="t s" text-anchor="middle">smoke tests · endpoints / /capitulos /itinerario · validación HTML crítica</text>
  <text x="880" y="547" class="t s" text-anchor="middle">confirmación de estabilidad posterior al fix</text>

  <rect x="500" y="650" width="760" height="150" class="box" fill="#ecfccb" stroke="#4d7c0f"/>
  <text x="880" y="692" class="t h" text-anchor="middle">Causa raíz y aprendizaje operacional</text>
  <text x="880" y="715" class="t s" text-anchor="middle">actualización de runbook · controles preventivos · checklist de despliegue</text>
  <text x="880" y="737" class="t s" text-anchor="middle">criterio de cierre con evidencia verificable</text>

  <rect x="1340" y="140" width="400" height="700" class="zone" fill="#f8fafc" stroke="#334155"/>
  <text x="1360" y="168" class="t tag">GOBIERNO Y TRAZABILIDAD</text>
  <rect x="1380" y="250" width="320" height="170" class="box" fill="#f3f4f6" stroke="#111827"/>
  <image href="icons-official/github-mark.svg" x="1402" y="275" width="32" height="32"/>
  <text x="1540" y="302" class="t h" text-anchor="middle">Registro en GitHub</text>
  <text x="1540" y="325" class="t s" text-anchor="middle">cambios auditables del incidente</text>
  <text x="1540" y="347" class="t s" text-anchor="middle">evidencia de mitigación y cierre</text>

  <rect x="1380" y="500" width="320" height="220" class="box" fill="#e2e8f0" stroke="#475569"/>
  <text x="1540" y="546" class="t h" text-anchor="middle">Salida Ejecutiva</text>
  <text x="1540" y="569" class="t s" text-anchor="middle">estado servicio: estable</text>
  <text x="1540" y="591" class="t s" text-anchor="middle">riesgo residual: controlado</text>
  <text x="1540" y="613" class="t s" text-anchor="middle">acciones preventivas: aplicadas</text>

  <line x1="380" y1="305" x2="500" y2="305" class="line" stroke="#b91c1c"/>
  <line x1="380" y1="515" x2="500" y2="305" class="line" stroke="#0369a1"/>
  <line x1="860" y1="315" x2="900" y2="315" class="line" stroke="#16a34a"/>
  <line x1="680" y1="400" x2="680" y2="460" class="line" stroke="#6d28d9"/>
  <line x1="1080" y1="400" x2="1080" y2="460" class="line" stroke="#6d28d9"/>
  <line x1="880" y1="610" x2="880" y2="650" class="line" stroke="#4d7c0f"/>
  <line x1="1310" y1="725" x2="1380" y2="610" class="line" stroke="#475569"/>
  <line x1="1260" y1="530" x2="1380" y2="330" class="line" stroke="#111827"/>
</svg>
